<svg width="249" height="106" viewBox="0 0 249 106" fill="none" xmlns="http://www.w3.org/2000/svg">
<path d="M59.6367 56.4609L61.1074 50.8828C61.5059 49.3633 62.8027 48.6016 64.998 48.5977H68.1562C68.3008 48.5977 68.4199 48.6523 68.5137 48.7617C68.6113 48.8711 68.6602 48.998 68.6602 49.1426V56.4609C68.6602 56.6133 68.6055 56.7422 68.4961 56.8477C68.3867 56.9492 68.2559 57 68.1035 57H67.002C66.8418 57 66.709 56.9492 66.6035 56.8477C66.502 56.7422 66.4512 56.6094 66.4512 56.4492V54.9727H62.2852L61.8926 56.4492C61.8535 56.6094 61.7656 56.7422 61.6289 56.8477C61.4922 56.9492 61.3477 57 61.1953 57H60.041C59.8887 57 59.7793 56.957 59.7129 56.8711C59.6465 56.7812 59.6133 56.7031 59.6133 56.6367C59.6172 56.5703 59.625 56.5117 59.6367 56.4609ZM62.7188 53.3145H66.4512V50.2559H64.7812C64.4062 50.2559 64.0781 50.3633 63.7969 50.5781C63.5195 50.7891 63.332 51.0742 63.2344 51.4336L62.7188 53.3145ZM70.2188 48.9609C70.2188 48.8555 70.252 48.7695 70.3184 48.7031C70.3887 48.6328 70.4746 48.5977 70.5762 48.5977H71.8887C71.9902 48.5977 72.0742 48.6328 72.1406 48.7031C72.2109 48.7695 72.2461 48.8555 72.2461 48.9609V50.7598C72.8789 50.5605 73.4434 50.4609 73.9395 50.4609C74.9004 50.4609 75.6641 50.748 76.2305 51.3223C76.7969 51.8926 77.0801 52.7168 77.0801 53.7949C77.0801 56.0098 75.8398 57.1172 73.3594 57.1172C72.793 57.1172 72.2051 57.0547 71.5957 56.9297C70.9902 56.8008 70.5312 56.6445 70.2188 56.4609V48.9609ZM72.2461 52.1133V55.5703C72.582 55.6602 73.0098 55.7051 73.5293 55.7051C74.0488 55.7051 74.4219 55.5547 74.6484 55.2539C74.8789 54.9531 74.9941 54.4668 74.9941 53.7949C74.9941 53.123 74.8809 52.6367 74.6543 52.3359C74.4316 52.0312 74.0527 51.8789 73.5176 51.8789C73.1738 51.8789 72.75 51.957 72.2461 52.1133ZM78.7148 56.2734C78.1055 55.7109 77.8008 54.8828 77.8008 53.7891C77.8008 52.6914 78.1055 51.8633 78.7148 51.3047C79.3242 50.7422 80.1992 50.4609 81.3398 50.4609C82.4844 50.4609 83.3613 50.7422 83.9707 51.3047C84.5801 51.8633 84.8848 52.6914 84.8848 53.7891C84.8848 54.8828 84.5801 55.7109 83.9707 56.2734C83.3613 56.8359 82.4844 57.1172 81.3398 57.1172C80.1992 57.1172 79.3242 56.8359 78.7148 56.2734ZM80.1973 52.2656C79.9551 52.582 79.834 53.0879 79.834 53.7832C79.834 54.4785 79.9551 54.9863 80.1973 55.3066C80.4395 55.627 80.8203 55.7871 81.3398 55.7871C81.8633 55.7871 82.2461 55.627 82.4883 55.3066C82.7344 54.9863 82.8574 54.4785 82.8574 53.7832C82.8574 53.0879 82.7344 52.582 82.4883 52.2656C82.2461 51.9492 81.8633 51.791 81.3398 51.791C80.8203 51.791 80.4395 51.9492 80.1973 52.2656ZM85.9688 54.2988V50.9414C85.9688 50.8359 86.002 50.75 86.0684 50.6836C86.1387 50.6133 86.2246 50.5781 86.3262 50.5781H87.6387C87.7402 50.5781 87.8242 50.6133 87.8906 50.6836C87.9609 50.75 87.9961 50.8359 87.9961 50.9414V54.2988C87.9961 55.2363 88.3672 55.7051 89.1094 55.7051C89.5977 55.7051 90.123 55.4238 90.6855 54.8613V50.9414C90.6855 50.8359 90.7188 50.75 90.7852 50.6836C90.8555 50.6133 90.9414 50.5781 91.043 50.5781H92.3496C92.4551 50.5781 92.541 50.6133 92.6074 50.6836C92.6777 50.75 92.7129 50.8359 92.7129 50.9414V56.6426C92.7129 56.7441 92.6777 56.8301 92.6074 56.9004C92.541 56.9668 92.4551 57 92.3496 57H91.043C90.9414 57 90.8555 56.9668 90.7852 56.9004C90.7188 56.8301 90.6855 56.7441 90.6855 56.6426V56.2676C90.0137 56.834 89.2969 57.1172 88.5352 57.1172C87.7773 57.1172 87.1602 56.8867 86.6836 56.4258C86.207 55.9609 85.9688 55.252 85.9688 54.2988ZM97.2188 55.7285L98.0215 55.6582H98.2383C98.3438 55.6582 98.4297 55.6914 98.4961 55.7578C98.5664 55.8242 98.6016 55.9102 98.6016 56.0156V56.6426C98.6016 56.7285 98.5664 56.8066 98.4961 56.877C98.4297 56.9434 98.3438 56.9844 98.2383 57C97.8398 57.0781 97.3203 57.1172 96.6797 57.1172C95 57.1172 94.1602 56.2383 94.1602 54.4805V48.9609C94.1602 48.8555 94.1934 48.7695 94.2598 48.7031C94.3301 48.6328 94.416 48.5977 94.5176 48.5977H95.8301C95.9316 48.5977 96.0156 48.6328 96.082 48.7031C96.1523 48.7695 96.1875 48.8555 96.1875 48.9609V50.918H97.8223C97.9238 50.918 98.0078 50.9512 98.0742 51.0176C98.1445 51.084 98.1797 51.1699 98.1797 51.2754V51.9727C98.1797 52.0781 98.1445 52.1641 98.0742 52.2305C98.0078 52.2969 97.9238 52.3301 97.8223 52.3301H96.1875V54.4805C96.1875 54.8789 96.2812 55.1875 96.4688 55.4062C96.6562 55.6211 96.9062 55.7285 97.2188 55.7285ZM106.828 55.7285L107.631 55.6582H107.848C107.953 55.6582 108.039 55.6914 108.105 55.7578C108.176 55.8242 108.211 55.9102 108.211 56.0156V56.6426C108.211 56.7285 108.176 56.8066 108.105 56.877C108.039 56.9434 107.953 56.9844 107.848 57C107.449 57.0781 106.93 57.1172 106.289 57.1172C104.609 57.1172 103.77 56.2383 103.77 54.4805V48.9609C103.77 48.8555 103.803 48.7695 103.869 48.7031C103.939 48.6328 104.025 48.5977 104.127 48.5977H105.439C105.541 48.5977 105.625 48.6328 105.691 48.7031C105.762 48.7695 105.797 48.8555 105.797 48.9609V50.918H107.432C107.533 50.918 107.617 50.9512 107.684 51.0176C107.754 51.084 107.789 51.1699 107.789 51.2754V51.9727C107.789 52.0781 107.754 52.1641 107.684 52.2305C107.617 52.2969 107.533 52.3301 107.432 52.3301H105.797V54.4805C105.797 54.8789 105.891 55.1875 106.078 55.4062C106.266 55.6211 106.516 55.7285 106.828 55.7285ZM109.172 56.6426V48.9609C109.172 48.8555 109.205 48.7695 109.271 48.7031C109.342 48.6328 109.428 48.5977 109.529 48.5977H110.842C110.943 48.5977 111.027 48.6328 111.094 48.7031C111.164 48.7695 111.199 48.8555 111.199 48.9609V51.3105C111.871 50.7441 112.586 50.4609 113.344 50.4609C114.105 50.4609 114.725 50.6934 115.201 51.1582C115.678 51.6191 115.916 52.3262 115.916 53.2793V56.6426C115.916 56.7441 115.881 56.8301 115.811 56.9004C115.744 56.9668 115.658 57 115.553 57H114.246C114.145 57 114.059 56.9668 113.988 56.9004C113.922 56.8301 113.889 56.7441 113.889 56.6426V53.2793C113.889 52.3457 113.516 51.8789 112.77 51.8789C112.281 51.8789 111.758 52.1582 111.199 52.7168V56.6426C111.199 56.7441 111.164 56.8301 111.094 56.9004C111.027 56.9668 110.943 57 110.842 57H109.529C109.428 57 109.342 56.9668 109.271 56.9004C109.205 56.8301 109.172 56.7441 109.172 56.6426ZM117.902 56.2617C117.301 55.6914 117 54.8711 117 53.8008C117 52.7266 117.303 51.9023 117.908 51.3281C118.514 50.75 119.354 50.4609 120.428 50.4609C121.502 50.4609 122.34 50.7422 122.941 51.3047C123.543 51.8633 123.844 52.666 123.844 53.7129V54.0469C123.844 54.1523 123.809 54.2402 123.738 54.3105C123.672 54.377 123.586 54.4102 123.48 54.4102H119.068C119.107 54.8906 119.244 55.2402 119.479 55.459C119.717 55.6777 120.096 55.7871 120.615 55.7871C121.135 55.7871 121.49 55.6699 121.682 55.4355C121.873 55.2012 122.109 55.082 122.391 55.0781H123.264C123.369 55.0781 123.455 55.1133 123.521 55.1836C123.592 55.25 123.627 55.3359 123.627 55.4414C123.627 56.5625 122.559 57.1211 120.422 57.1172C119.344 57.1172 118.504 56.832 117.902 56.2617ZM119.057 53.1738H121.781C121.742 52.252 121.289 51.791 120.422 51.791C119.559 51.791 119.104 52.252 119.057 53.1738ZM129.85 56.0098C129.127 55.3184 128.766 54.25 128.766 52.8047C128.766 51.3555 129.127 50.2852 129.85 49.5938C130.576 48.8984 131.664 48.5508 133.113 48.5508H134.42C135.307 48.5508 136.09 48.7812 136.77 49.2422C137.453 49.7031 137.795 50.334 137.795 51.1348C137.795 51.3652 137.727 51.5312 137.59 51.6328C137.453 51.7305 137.32 51.7793 137.191 51.7793H136.494C136.135 51.7793 135.855 51.5645 135.656 51.1348C135.367 50.5176 134.887 50.209 134.215 50.209H133.172C132.316 50.209 131.736 50.3926 131.432 50.7598C131.127 51.127 130.975 51.8066 130.975 52.7988C130.975 53.791 131.127 54.4727 131.432 54.8438C131.736 55.2109 132.316 55.3945 133.172 55.3945H134.338C135.01 55.3945 135.488 55.0859 135.773 54.4688C135.973 54.0352 136.254 53.8184 136.617 53.8184H137.314C137.498 53.8184 137.643 53.8867 137.748 54.0234C137.857 54.1602 137.912 54.3086 137.912 54.4688C137.912 55.2695 137.572 55.9004 136.893 56.3613C136.213 56.8184 135.43 57.0469 134.543 57.0469H133.113C131.664 57.0469 130.576 56.7012 129.85 56.0098ZM139.488 56.2734C138.879 55.7109 138.574 54.8828 138.574 53.7891C138.574 52.6914 138.879 51.8633 139.488 51.3047C140.098 50.7422 140.973 50.4609 142.113 50.4609C143.258 50.4609 144.135 50.7422 144.744 51.3047C145.354 51.8633 145.658 52.6914 145.658 53.7891C145.658 54.8828 145.354 55.7109 144.744 56.2734C144.135 56.8359 143.258 57.1172 142.113 57.1172C140.973 57.1172 140.098 56.8359 139.488 56.2734ZM140.971 52.2656C140.729 52.582 140.607 53.0879 140.607 53.7832C140.607 54.4785 140.729 54.9863 140.971 55.3066C141.213 55.627 141.594 55.7871 142.113 55.7871C142.637 55.7871 143.02 55.627 143.262 55.3066C143.508 54.9863 143.631 54.4785 143.631 53.7832C143.631 53.0879 143.508 52.582 143.262 52.2656C143.02 51.9492 142.637 51.791 142.113 51.791C141.594 51.791 141.213 51.9492 140.971 52.2656ZM146.742 56.6426V50.9414C146.742 50.8359 146.775 50.75 146.842 50.6836C146.912 50.6133 146.998 50.5781 147.1 50.5781H148.412C148.518 50.5781 148.604 50.6133 148.67 50.6836C148.736 50.75 148.77 50.8359 148.77 50.9414V51.3105C149.051 51.0371 149.326 50.8281 149.596 50.6836C149.869 50.5352 150.197 50.4609 150.58 50.4609C151.49 50.4609 152.18 50.8359 152.648 51.5859C153.375 50.832 154.119 50.457 154.881 50.4609C155.646 50.4609 156.25 50.6914 156.691 51.1523C157.137 51.6094 157.359 52.3184 157.359 53.2793V56.6426C157.359 56.748 157.326 56.834 157.26 56.9004C157.193 56.9668 157.107 57 157.002 57H155.695C155.59 57 155.502 56.9668 155.432 56.9004C155.365 56.8301 155.332 56.7441 155.332 56.6426V53.2793C155.332 52.3418 154.992 51.875 154.312 51.8789C153.898 51.8789 153.471 52.1777 153.029 52.7754C153.053 52.9434 153.064 53.1113 153.064 53.2793V56.6426C153.064 56.748 153.029 56.834 152.959 56.9004C152.893 56.9668 152.809 57 152.707 57H151.4C151.295 57 151.207 56.9668 151.137 56.9004C151.07 56.8301 151.037 56.7441 151.037 56.6426V53.2793C151.037 52.3418 150.697 51.875 150.018 51.8789C149.584 51.8789 149.168 52.1582 148.77 52.7168V56.6426C148.77 56.748 148.734 56.834 148.664 56.9004C148.598 56.9668 148.514 57 148.412 57H147.1C146.994 57 146.908 56.9668 146.842 56.9004C146.775 56.834 146.742 56.748 146.742 56.6426ZM158.801 58.6172V50.9414C158.801 50.8359 158.834 50.75 158.9 50.6836C158.971 50.6133 159.057 50.5781 159.158 50.5781H160.289C160.391 50.5781 160.475 50.6133 160.541 50.6836C160.611 50.75 160.646 50.8359 160.646 50.9414V51.1172C161.264 50.6797 161.98 50.4609 162.797 50.4609C163.613 50.4609 164.295 50.75 164.842 51.3281C165.389 51.9023 165.662 52.7266 165.662 53.8008C165.662 54.8711 165.379 55.6914 164.812 56.2617C164.246 56.832 163.482 57.1172 162.521 57.1172C162.025 57.1172 161.461 57.0176 160.828 56.8184V58.6172C160.828 58.7227 160.793 58.8086 160.723 58.875C160.656 58.9453 160.572 58.9805 160.471 58.9805H159.158C159.057 58.9805 158.971 58.9453 158.9 58.875C158.834 58.8086 158.801 58.7227 158.801 58.6172ZM160.828 55.4648C161.332 55.625 161.756 55.7051 162.1 55.7051C162.635 55.7051 163.014 55.5527 163.236 55.248C163.463 54.9434 163.576 54.457 163.576 53.7891C163.576 53.1211 163.469 52.6367 163.254 52.3359C163.043 52.0312 162.725 51.8789 162.299 51.8789C161.877 51.8789 161.387 52.0547 160.828 52.4062V55.4648ZM167.156 56.5781C166.641 56.2188 166.383 55.7109 166.383 55.0547C166.383 54.3984 166.641 53.8945 167.156 53.543C167.676 53.1914 168.344 53.0156 169.16 53.0156H171.1C171.1 52.5586 171.004 52.2402 170.812 52.0605C170.621 51.8809 170.285 51.791 169.805 51.791C169.328 51.791 168.992 51.9102 168.797 52.1484C168.605 52.3828 168.369 52.5 168.088 52.5H167.215C167.109 52.5 167.021 52.4668 166.951 52.4004C166.885 52.3301 166.852 52.2441 166.852 52.1426C166.852 51.0215 167.916 50.4609 170.045 50.4609C170.975 50.4609 171.721 50.6699 172.283 51.0879C172.846 51.502 173.127 52.1445 173.127 53.0156V56.6426C173.127 56.748 173.094 56.834 173.027 56.9004C172.961 56.9668 172.875 57 172.77 57H171.639C171.533 57 171.447 56.9668 171.381 56.9004C171.314 56.8301 171.281 56.7441 171.281 56.6426V56.4609C170.664 56.9023 169.951 57.1211 169.143 57.1172C168.338 57.1172 167.676 56.9375 167.156 56.5781ZM169.301 54.3457C169.027 54.3457 168.811 54.4121 168.65 54.5449C168.494 54.6777 168.416 54.8496 168.416 55.0605C168.416 55.2715 168.498 55.4453 168.662 55.582C168.826 55.7188 169.059 55.7871 169.359 55.7871C169.961 55.7871 170.541 55.6113 171.1 55.2598V54.3457H169.301ZM174.574 56.6426V50.9414C174.574 50.8359 174.607 50.75 174.674 50.6836C174.744 50.6133 174.83 50.5781 174.932 50.5781H176.244C176.346 50.5781 176.43 50.6133 176.496 50.6836C176.566 50.75 176.602 50.8359 176.602 50.9414V51.3105C177.273 50.7441 177.988 50.4609 178.746 50.4609C179.508 50.4609 180.127 50.6934 180.604 51.1582C181.08 51.6191 181.318 52.3262 181.318 53.2793V56.6426C181.318 56.7441 181.283 56.8301 181.213 56.9004C181.146 56.9668 181.061 57 180.955 57H179.648C179.547 57 179.461 56.9668 179.391 56.9004C179.324 56.8301 179.291 56.7441 179.291 56.6426V53.2793C179.291 52.3457 178.918 51.8789 178.172 51.8789C177.684 51.8789 177.16 52.1582 176.602 52.7168V56.6426C176.602 56.7441 176.566 56.8301 176.496 56.9004C176.43 56.9668 176.346 57 176.244 57H174.932C174.83 57 174.744 56.9668 174.674 56.9004C174.607 56.8301 174.574 56.7441 174.574 56.6426ZM183.896 57.6094L184.664 57.709C185.215 57.709 185.6 57.3047 185.818 56.4961C185.154 56.4961 184.6 56.2969 184.154 55.8984C183.709 55.4961 183.326 54.7832 183.006 53.7598L182.133 50.9297C182.121 50.8984 182.115 50.8633 182.115 50.8242C182.115 50.7812 182.139 50.7305 182.186 50.6719C182.236 50.6133 182.311 50.582 182.408 50.5781H183.633C183.746 50.5781 183.854 50.6172 183.955 50.6953C184.061 50.7695 184.129 50.8633 184.16 50.9766L184.928 53.4609C185.119 54.0703 185.312 54.4922 185.508 54.7266C185.707 54.9609 185.941 55.0781 186.211 55.0781L187.377 50.9766C187.408 50.8633 187.469 50.7695 187.559 50.6953C187.652 50.6172 187.756 50.5781 187.869 50.5781H189.105C189.203 50.5781 189.275 50.6094 189.322 50.6719C189.369 50.7344 189.393 50.7871 189.393 50.8301C189.393 50.8691 189.389 50.9023 189.381 50.9297L187.846 56.4023C187.572 57.3711 187.232 58.0625 186.826 58.4766C186.424 58.8906 185.904 59.0977 185.268 59.0977C184.631 59.0977 184.18 59.0742 183.914 59.0273C183.652 58.9805 183.488 58.9219 183.422 58.8516C183.355 58.7852 183.322 58.707 183.322 58.6172V57.9727C183.322 57.8672 183.355 57.7793 183.422 57.709C183.488 57.6426 183.574 57.6094 183.68 57.6094H183.896Z" fill="#34E89E"/>
<g filter="url(#filter0_d_215_2)">
<rect x="35.5" y="35.5" width="178" height="35" rx="17.5" stroke="#2AE9DE" shape-rendering="crispEdges"/>
</g>
<defs>
<filter id="filter0_d_215_2" x="0" y="0" width="249" height="106" filterUnits="userSpaceOnUse" color-interpolation-filters="sRGB">
<feFlood flood-opacity="0" result="BackgroundImageFix"/>
<feColorMatrix in="SourceAlpha" type="matrix" values="0 0 0 0 0 0 0 0 0 0 0 0 0 0 0 0 0 0 127 0" result="hardAlpha"/>
<feMorphology radius="5" operator="dilate" in="SourceAlpha" result="effect1_dropShadow_215_2"/>
<feOffset/>
<feGaussianBlur stdDeviation="15"/>
<feComposite in2="hardAlpha" operator="out"/>
<feColorMatrix type="matrix" values="0 0 0 0 0.203922 0 0 0 0 0.909804 0 0 0 0 0.619608 0 0 0 0.6 0"/>
<feBlend mode="normal" in2="BackgroundImageFix" result="effect1_dropShadow_215_2"/>
<feBlend mode="normal" in="SourceGraphic" in2="effect1_dropShadow_215_2" result="shape"/>
</filter>
</defs>
</svg>
